<svg width="672" height="672" viewBox="0 0 672 672" fill="none" xmlns="http://www.w3.org/2000/svg">
<g filter="url(#filter0_d)">
<path d="M451.398 90.9677C494.19 129.956 520.698 182.494 541.618 235.627C562.538 288.761 577.991 342.251 577.039 397.88C576.089 453.628 558.853 511.516 522.48 552.167C486.107 592.819 430.716 616.237 379.722 611.363C328.728 606.608 282.253 573.444 227.099 561.083C172.063 548.839 108.47 557.159 73.8801 532.079C39.409 506.999 53.9999 381.5 53.9999 381.5C53.9999 381.5 72.1226 271.268 114.184 217.602C145.712 177.376 188.671 181.696 227.099 146.5C263.258 113.382 258.36 67.7888 304.123 47.3438C349.887 26.78 408.726 51.9796 451.398 90.9677Z" fill="url(#paint0_linear)"/>
<path d="M355.967 143.413C369.095 146.954 367.481 154.316 373.64 160.764C377.476 164.778 395.53 156.602 400.955 160.764C409.033 166.961 401.43 175.773 404.168 184.864C410.358 205.414 434.136 194.572 437.909 226.637C441.68 258.704 426.363 258.332 428.267 278.051C429.262 288.352 436.019 293.495 434.695 303.759C433.18 315.5 416.517 317.817 418.627 329.467C420.29 338.644 431.692 338.308 434.695 347.139C437.118 354.269 435.033 358.899 434.695 366.421C433.394 395.315 431.672 412.905 418.627 438.72C398.084 479.377 331.856 492.135 262.778 477.281C240.619 472.517 234.906 455.251 219.399 438.72C209.34 427.999 196.77 424.427 195.298 409.801C193.894 395.84 209.089 391.511 211.365 377.667C213.842 362.603 200.578 353.736 204.938 339.106C209.882 322.518 232.724 325.333 237.072 308.579C240.782 294.284 225.186 285.882 229.039 271.625C232.749 257.893 248.957 257.907 253.138 244.312C257.029 231.66 245.446 223.026 249.925 210.571C255.2 195.905 271.579 197.677 280.453 184.864C285.246 177.943 281.235 171.042 290.092 165.584C298.158 160.614 301.14 166.657 310.98 164.301C328.454 160.117 342.838 139.873 355.967 143.413Z" fill="#191847"/>
<path d="M365.166 176.702C366.032 176.895 366.891 176.349 367.083 175.482C367.276 174.616 366.729 173.758 365.863 173.565L365.166 176.702ZM336.594 168.707L336.43 167.109L336.594 168.707ZM301.247 191.201L302.14 192.536L301.247 191.201ZM269.113 213.694L270.465 214.565L269.113 213.694ZM262.686 255.469L261.238 254.777L262.686 255.469ZM240.194 282.781L238.628 282.419L240.194 282.781ZM246.62 314.916L245.023 314.745L246.62 314.916ZM219.306 356.689L217.709 356.519L219.306 356.689ZM224.126 385.61L222.521 385.533L224.126 385.61ZM213.104 416.923C212.652 417.687 212.903 418.673 213.667 419.125C214.43 419.579 215.416 419.326 215.868 418.564L213.104 416.923ZM262.686 297.243L264.194 297.797L262.686 297.243ZM262.686 327.769L264.257 328.109L262.686 327.769ZM246.62 359.903L248.203 360.173L246.62 359.903ZM245.014 380.791C245.014 381.678 245.733 382.397 246.62 382.397C247.508 382.397 248.227 381.678 248.227 380.791H245.014ZM379.132 176.979C378.377 177.444 378.142 178.434 378.607 179.189C379.071 179.945 380.061 180.181 380.818 179.716L379.132 176.979ZM392.828 178.347L391.987 179.716L392.828 178.347ZM392.828 199.234L394.323 198.643L392.828 199.234ZM415.322 216.908L416.75 216.17L415.322 216.908ZM418.536 239.401L420.072 238.933L418.536 239.401ZM426.569 257.075L424.982 257.323L426.569 257.075ZM415.322 289.21L416.927 289.263L415.322 289.21ZM418.536 310.096L416.958 309.793L418.536 310.096ZM404.076 330.982L405.67 331.183L404.076 330.982ZM407.338 350.652C407.553 351.513 408.424 352.036 409.285 351.821C410.146 351.606 410.669 350.735 410.454 349.874L407.338 350.652ZM397.65 300.456L399.229 300.748L397.65 300.456ZM386.401 316.522L387.988 316.78L386.401 316.522ZM386.47 333.734C386.215 334.584 386.697 335.481 387.547 335.735C388.397 335.99 389.292 335.508 389.548 334.658L386.47 333.734ZM351.882 191C352.659 191.429 353.638 191.149 354.066 190.372C354.497 189.596 354.217 188.618 353.441 188.189L351.882 191ZM334.988 187.987L334.475 186.464L334.988 187.987ZM320.528 204.054L319.657 202.704L320.528 204.054ZM294.821 210.481L293.757 209.276L294.821 210.481ZM286.787 234.581L285.285 234.013L286.787 234.581ZM383.09 200.285C382.783 199.453 381.86 199.026 381.026 199.333C380.194 199.64 379.767 200.564 380.074 201.396L383.09 200.285ZM384.795 216.908L383.446 217.781L384.795 216.908ZM399.256 231.368L400.753 230.789L399.256 231.368ZM399.256 250.649L400.716 249.98L399.256 250.649ZM407.289 266.715L405.69 266.866L407.289 266.715ZM305.032 235.278C305.418 234.479 305.082 233.519 304.283 233.134C303.485 232.748 302.524 233.084 302.138 233.883L305.032 235.278ZM294.821 255.469L296.42 255.318L294.821 255.469ZM299.162 277.961L297.559 277.872L299.162 277.961ZM299.162 314.916L297.598 314.55L299.162 314.916ZM285.556 329.951C284.985 330.63 285.075 331.645 285.755 332.214C286.436 332.784 287.449 332.694 288.019 332.015L285.556 329.951ZM365.863 173.565C360.315 172.333 356.19 170.505 351.637 169.007C347.133 167.524 342.487 166.482 336.43 167.109L336.759 170.305C342.21 169.741 346.378 170.658 350.633 172.059C354.839 173.444 359.421 175.426 365.166 176.702L365.863 173.565ZM336.43 167.109C327.86 167.995 322.131 171.548 316.886 175.943C314.312 178.101 311.769 180.538 309.147 182.89C306.492 185.271 303.664 187.652 300.354 189.865L302.14 192.536C305.631 190.202 308.588 187.708 311.292 185.282C314.03 182.826 316.422 180.524 318.95 178.406C323.91 174.249 329.054 171.102 336.759 170.305L336.43 167.109ZM300.354 189.865C294.05 194.081 288.369 196.334 282.748 199.402C277.2 202.429 272.106 206.085 267.763 212.824L270.465 214.565C274.419 208.427 279.023 205.094 284.286 202.222C289.474 199.391 295.712 196.836 302.14 192.536L300.354 189.865ZM267.763 212.824C262.989 220.234 263.21 227.426 263.61 234.292C264.013 241.215 264.583 247.762 261.238 254.777L264.137 256.161C267.897 248.277 267.212 240.875 266.818 234.104C266.42 227.276 266.299 221.03 270.465 214.565L267.763 212.824ZM261.238 254.777C258.453 260.611 253.952 263.843 249.374 267.499C244.845 271.117 240.317 275.121 238.628 282.419L241.759 283.145C243.186 276.981 246.932 273.563 251.381 270.009C255.785 266.491 260.97 262.797 264.137 256.161L261.238 254.777ZM238.628 282.419C237.056 289.211 239.218 294.499 241.361 299.396C243.529 304.351 245.648 308.875 245.023 314.745L248.218 315.086C248.949 308.231 246.412 302.923 244.305 298.109C242.173 293.237 240.445 288.821 241.759 283.145L238.628 282.419ZM245.023 314.745C244.063 323.736 238.263 328.952 231.895 334.6C225.637 340.148 218.813 346.128 217.709 356.519L220.904 356.86C221.859 347.869 227.658 342.651 234.027 337.005C240.283 331.457 247.11 325.477 248.218 315.086L245.023 314.745ZM217.709 356.519C217.065 362.578 218.509 367.233 219.939 371.628C221.372 376.033 222.777 380.15 222.521 385.533L225.731 385.686C226.019 379.634 224.409 374.983 222.994 370.634C221.576 366.274 220.339 362.187 220.904 356.86L217.709 356.519ZM222.521 385.533C221.911 398.358 219.655 405.881 213.104 416.923L215.868 418.564C222.686 407.07 225.096 399.035 225.731 385.686L222.521 385.533ZM277.194 279.179C276.899 280.364 276.158 281.411 274.976 282.503C273.768 283.619 272.258 284.643 270.517 285.887C267.131 288.306 263.14 291.36 261.178 296.687L264.194 297.797C265.788 293.466 269.029 290.899 272.385 288.501C274.015 287.338 275.756 286.156 277.155 284.863C278.58 283.549 279.805 281.985 280.313 279.959L277.194 279.179ZM261.178 296.687C258.964 302.705 259.665 307.786 260.502 312.606C261.343 317.451 262.297 321.964 261.116 327.43L264.257 328.109C265.593 321.921 264.487 316.764 263.669 312.056C262.848 307.324 262.29 302.968 264.194 297.797L261.178 296.687ZM261.116 327.43C259.717 333.912 256.5 338.233 253.133 342.845C249.776 347.442 246.288 352.314 245.037 359.632L248.203 360.173C249.317 353.663 252.381 349.323 255.727 344.74C259.063 340.171 262.695 335.343 264.257 328.109L261.116 327.43ZM245.037 359.632C244.321 363.808 244.325 367.118 244.501 370.389C244.676 373.684 245.014 376.765 245.014 380.791H248.227C248.227 376.657 247.875 373.315 247.709 370.217C247.54 367.093 247.544 364.038 248.203 360.173L245.037 359.632ZM380.818 179.716C382.745 178.529 384.601 177.981 386.401 177.981C388.202 177.981 390.059 178.529 391.987 179.716L393.671 176.979C391.324 175.534 388.89 174.768 386.401 174.768C383.913 174.768 381.481 175.534 379.132 176.979L380.818 179.716ZM391.987 179.716C393.271 180.506 393.673 181.393 393.733 182.441C393.805 183.661 393.413 185.154 392.783 187.043C392.191 188.825 391.392 190.947 390.965 193.052C390.529 195.195 390.427 197.53 391.334 199.825L394.323 198.643C393.73 197.147 393.746 195.508 394.114 193.692C394.49 191.837 395.182 190.013 395.833 188.057C396.448 186.206 397.053 184.167 396.941 182.254C396.819 180.17 395.86 178.326 393.671 176.979L391.987 179.716ZM391.334 199.825C393.665 205.715 398.645 207.865 403.068 209.727C407.635 211.648 411.638 213.283 413.895 217.646L416.75 216.17C413.874 210.61 408.684 208.603 404.315 206.765C399.803 204.867 396.102 203.141 394.323 198.643L391.334 199.825ZM413.895 217.646C415.749 221.23 415.911 224.405 415.882 227.914C415.853 231.405 415.62 235.338 416.999 239.869L420.072 238.933C418.867 234.975 419.065 231.603 419.095 227.939C419.126 224.294 418.973 220.467 416.75 216.17L413.895 217.646ZM416.999 239.869C418.175 243.735 420.022 246.471 421.575 248.992C423.131 251.517 424.449 253.9 424.982 257.323L428.157 256.828C427.523 252.758 425.929 249.93 424.311 247.307C422.69 244.676 421.103 242.32 420.072 238.933L416.999 239.869ZM424.982 257.323C425.905 263.253 423.524 267.511 420.524 272.222C417.571 276.862 413.958 281.991 413.716 289.154L416.927 289.263C417.133 283.138 420.166 278.77 423.235 273.949C426.259 269.199 429.278 264.034 428.157 256.828L424.982 257.323ZM413.716 289.154C413.567 293.615 414.871 297.096 415.882 300.203C416.897 303.329 417.657 306.16 416.958 309.793L420.114 310.399C420.972 305.927 419.986 302.439 418.937 299.21C417.881 295.961 416.8 293.05 416.927 289.263L413.716 289.154ZM416.958 309.793C416.142 314.033 413.309 316.456 410.02 319.284C406.825 322.029 403.185 325.177 402.482 330.783L405.67 331.183C406.203 326.944 408.857 324.521 412.115 321.72C415.278 319 419.056 315.9 420.114 310.399L416.958 309.793ZM402.482 330.783C401.953 334.982 402.769 338.195 403.911 341.249C405.075 344.358 406.423 347 407.338 350.652L410.454 349.874C409.486 345.997 407.94 342.848 406.922 340.125C405.884 337.347 405.229 334.684 405.67 331.183L402.482 330.783ZM394.569 277.32C392.914 281.114 393.827 285.464 394.729 289.29C395.686 293.361 396.663 296.967 396.07 300.162L399.229 300.748C399.975 296.725 398.74 292.312 397.856 288.555C396.914 284.555 396.353 281.268 397.515 278.603L394.569 277.32ZM396.07 300.162C395.442 303.533 393.425 305.208 390.943 307.232C388.49 309.233 385.58 311.584 384.816 316.264L387.988 316.78C388.537 313.411 390.506 311.736 392.975 309.723C395.415 307.731 398.365 305.398 399.229 300.748L396.07 300.162ZM384.816 316.264C384.221 319.906 385.22 323.114 385.966 325.852C386.733 328.678 387.268 331.077 386.47 333.734L389.548 334.658C390.633 331.041 389.835 327.835 389.066 325.009C388.273 322.097 387.528 319.604 387.988 316.78L384.816 316.264ZM353.441 188.189C350.267 186.431 347.276 185.386 344.16 185.103C341.045 184.82 337.912 185.308 334.475 186.464L335.501 189.51C338.631 188.457 341.307 188.07 343.869 188.303C346.431 188.536 348.994 189.399 351.882 191L353.441 188.189ZM334.475 186.464C329.858 188.018 327.765 191.385 326.013 194.535C324.224 197.755 322.797 200.68 319.657 202.704L321.398 205.405C325.354 202.855 327.157 199.092 328.823 196.096C330.528 193.028 332.117 190.648 335.501 189.51L334.475 186.464ZM319.657 202.704C315.764 205.213 311.769 205.145 307.304 205.196C302.927 205.246 298.12 205.428 293.757 209.276L295.884 211.686C299.282 208.688 302.979 208.459 307.34 208.409C311.613 208.36 316.594 208.501 321.398 205.405L319.657 202.704ZM293.757 209.276C289.56 212.98 288.349 217.061 287.711 221.249C287.067 225.485 286.999 229.485 285.285 234.013L288.29 235.151C290.166 230.199 290.314 225.502 290.888 221.733C291.469 217.918 292.481 214.688 295.884 211.686L293.757 209.276ZM285.285 234.013C284.089 237.168 282.075 239.67 279.879 242.397C277.725 245.071 275.391 247.968 274.031 251.705L277.051 252.804C278.2 249.639 280.189 247.134 282.38 244.413C284.528 241.746 286.884 238.863 288.29 235.151L285.285 234.013ZM274.031 251.705C273.271 253.796 273.296 256.274 273.617 258.738C273.94 261.228 274.594 263.911 275.252 266.487C275.919 269.104 276.587 271.596 276.995 273.848C277.411 276.133 277.508 277.924 277.194 279.179L280.313 279.959C280.802 277.999 280.587 275.634 280.157 273.273C279.723 270.879 279.016 268.239 278.365 265.693C277.705 263.107 277.098 260.597 276.803 258.323C276.504 256.025 276.556 254.165 277.051 252.804L274.031 251.705ZM380.074 201.396C380.375 202.21 380.595 203.342 380.784 204.735C380.972 206.124 381.106 207.623 381.28 209.204C381.449 210.753 381.65 212.351 381.964 213.801C382.272 215.231 382.718 216.654 383.446 217.781L386.145 216.035C385.729 215.394 385.385 214.419 385.103 213.122C384.827 211.846 384.641 210.389 384.474 208.856C384.311 207.356 384.164 205.748 383.968 204.306C383.775 202.869 383.516 201.446 383.09 200.285L380.074 201.396ZM383.446 217.781C385.828 221.463 389.039 223.397 391.668 225.187C394.331 227 396.502 228.705 397.757 231.947L400.753 230.789C399.127 226.582 396.238 224.41 393.475 222.531C390.68 220.629 388.101 219.058 386.145 216.035L383.446 217.781ZM397.757 231.947C398.53 233.946 398.668 235.469 398.544 236.749C398.419 238.072 398.014 239.213 397.542 240.561C397.083 241.868 396.561 243.376 396.464 245.151C396.368 246.964 396.712 248.953 397.795 251.318L400.716 249.98C399.823 248.027 399.608 246.555 399.674 245.325C399.742 244.061 400.11 242.948 400.574 241.622C401.024 240.337 401.575 238.831 401.743 237.055C401.917 235.241 401.693 233.216 400.753 230.789L397.757 231.947ZM397.795 251.318C399.149 254.273 401.146 256.95 402.667 259.342C404.243 261.824 405.433 264.164 405.69 266.866L408.889 266.565C408.559 263.082 407.028 260.213 405.38 257.619C403.674 254.936 401.948 252.67 400.716 249.98L397.795 251.318ZM405.69 266.866C405.783 267.852 405.503 268.426 405.014 268.926C404.424 269.53 403.509 270.04 402.211 270.69C399.807 271.895 396.251 273.463 394.569 277.32L397.515 278.603C398.65 276.003 400.996 274.893 403.651 273.563C404.881 272.946 406.285 272.222 407.311 271.175C408.437 270.023 409.073 268.524 408.889 266.565L405.69 266.866ZM302.138 233.883C301.254 235.718 300.236 237.389 299.187 239.028C298.154 240.642 297.058 242.279 296.119 243.925C294.202 247.278 292.778 250.916 293.221 255.619L296.42 255.318C296.063 251.524 297.168 248.564 298.909 245.519C299.796 243.966 300.81 242.454 301.894 240.758C302.961 239.089 304.064 237.289 305.032 235.278L302.138 233.883ZM293.221 255.619C293.607 259.704 294.862 263.559 295.887 267.147C296.933 270.805 297.763 274.253 297.559 277.872L300.766 278.053C301.003 273.853 300.03 269.954 298.977 266.265C297.905 262.51 296.77 259.026 296.42 255.318L293.221 255.619ZM297.559 277.872C297.483 279.193 296.985 280.158 296.203 281.11C295.796 281.603 295.321 282.082 294.776 282.615C294.247 283.129 293.637 283.707 293.056 284.327C291.869 285.597 290.691 287.155 290.013 289.33C289.335 291.499 289.196 294.144 289.843 297.542L292.999 296.941C292.427 293.931 292.597 291.838 293.081 290.287C293.564 288.742 294.399 287.594 295.402 286.524C295.916 285.973 296.447 285.471 297.017 284.915C297.571 284.375 298.156 283.793 298.683 283.153C299.77 281.833 300.643 280.237 300.766 278.053L297.559 277.872ZM289.843 297.542C291.132 304.329 293.648 307.331 295.615 309.457C296.61 310.531 297.178 311.118 297.508 311.812C297.777 312.378 297.93 313.135 297.598 314.55L300.727 315.281C301.183 313.338 301.064 311.806 300.41 310.431C299.816 309.185 298.808 308.177 297.975 307.275C296.287 305.45 294.146 302.975 292.999 296.941L289.843 297.542ZM297.598 314.55C296.893 317.56 295.149 319.983 292.891 322.396C291.756 323.609 290.54 324.772 289.271 326.018C288.018 327.248 286.735 328.543 285.556 329.951L288.019 332.015C289.092 330.732 290.282 329.529 291.523 328.31C292.746 327.107 294.042 325.87 295.238 324.591C297.641 322.023 299.832 319.102 300.727 315.281L297.598 314.55Z" fill="white" fill-opacity="0.1"/>
<path d="M364.965 335.972H323.808L334.507 280.82H355.087L364.965 335.972Z" fill="#F7C9A2"/>
<path d="M346.408 296.468C331.886 297.314 308.872 269.111 311.328 238.108C311.328 238.108 312.476 229.284 314.645 227.05C319.506 222.043 326.968 224.866 332.34 220.414C336.132 217.272 335.601 212.505 340.08 210.461C344.812 208.301 348.341 212.959 353.353 211.566C357.854 210.315 359.803 203.741 363.305 204.931C366.808 206.121 365.887 217.096 368.835 223.733C371.784 230.367 376.577 230.367 377.682 244.744C378.788 259.121 354.458 296.468 346.408 296.468Z" fill="#F6C8A2"/>
<path fill-rule="evenodd" clip-rule="evenodd" d="M218.023 528.065C232.014 386.414 320.209 308.887 320.209 308.887L320.238 308.912L320.725 309.375C320.731 309.212 320.736 309.049 320.742 308.887C320.742 308.887 328.258 316.757 344.541 316.757C360.826 316.757 369.15 308.887 369.15 308.887C369.15 308.887 457.346 386.414 471.335 528.065H408.98C409.488 521.827 409.803 515.664 409.945 509.587H363.152H326.207H279.414C279.556 515.664 279.871 521.827 280.379 528.065H218.023Z" fill="#2364AA"/>
<path fill-rule="evenodd" clip-rule="evenodd" d="M409.477 505.623C410.144 476.133 407.528 448.443 403.163 423.386C400.881 453.121 396.111 488.899 386.147 505.623H409.477Z" fill="black" fill-opacity="0.1"/>
<path fill-rule="evenodd" clip-rule="evenodd" d="M278.973 505.623C278.304 476.133 280.921 448.443 285.285 423.386C287.568 453.121 292.339 488.899 302.302 505.623H278.973Z" fill="black" fill-opacity="0.1"/>
<path d="M271.589 409.1H415.678C421.86 409.1 424.953 409.1 427.399 410.091C430.795 411.467 433.49 414.162 434.867 417.56C435.857 420.006 435.857 423.097 435.857 429.281V507.885C435.857 514.07 435.857 517.161 434.867 519.607C433.49 523.005 430.795 525.7 427.399 527.075C424.953 528.067 421.86 528.067 415.678 528.067H271.589C265.407 528.067 262.314 528.067 259.868 527.075C256.47 525.7 253.777 523.005 252.399 519.607C251.41 517.161 251.41 514.068 251.41 507.88V429.253C251.41 423.088 251.41 420.006 252.399 417.56C253.777 414.162 256.47 411.467 259.868 410.091C262.314 409.1 265.407 409.1 271.589 409.1Z" fill="#AFB9C5"/>
<path d="M271.589 409.1H415.678C421.86 409.1 424.953 409.1 427.399 410.091C430.795 411.467 433.49 414.162 434.867 417.56C435.857 420.006 435.857 423.097 435.857 429.281V507.885C435.857 514.07 435.857 517.161 434.867 519.607C433.49 523.005 430.795 525.7 427.399 527.075C424.953 528.067 421.86 528.067 415.678 528.067H271.589C265.407 528.067 262.314 528.067 259.868 527.075C256.47 525.7 253.777 523.005 252.399 519.607C251.41 517.161 251.41 514.068 251.41 507.88V429.253C251.41 423.088 251.41 420.006 252.399 417.56C253.777 414.162 256.47 411.467 259.868 410.091C262.314 409.1 265.407 409.1 271.589 409.1Z" fill="url(#paint1_linear)"/>
<path d="M343.315 482.625C351.33 482.625 357.827 476.561 357.827 469.081C357.827 461.601 351.33 455.537 343.315 455.537C335.301 455.537 328.804 461.601 328.804 469.081C328.804 476.561 335.301 482.625 343.315 482.625Z" fill="url(#paint2_linear)"/>
<path fill-rule="evenodd" clip-rule="evenodd" d="M485.806 300.841C474.194 307.84 462.784 311.222 457.43 309.841C444 306.38 442.766 257.253 453.157 237.886C463.548 218.518 516.965 210.076 519.656 248.449C520.59 261.768 514.999 273.653 506.737 283.352L521.551 352.404H478.517L485.806 300.841Z" fill="#B28B67"/>
<path fill-rule="evenodd" clip-rule="evenodd" d="M454.459 226.978C453.683 224.744 448.4 217.824 457.808 211.231C459.499 210.046 462.293 211.227 464.714 210.479C466.534 209.916 467.149 207.376 469.236 206.933C471.402 206.473 473.76 208.557 476.207 208.374C477.708 208.261 480.021 205.924 481.583 205.798C484.37 205.574 486.902 208.204 489.623 208.374C491.201 208.472 493.034 205.933 494.599 205.798C498.411 205.471 501.883 207.248 505.241 207.787C508.338 208.284 509.778 214.628 512.057 216.128C519.213 220.833 524.82 222.149 530.626 226.978C537.53 232.718 538.851 236.989 541.711 240.814C544.57 244.64 546.338 258.117 544.67 266.755C543.686 271.851 541.121 285.765 535.394 291.151C527.557 298.527 511.609 300.711 510.194 299.728C503.637 295.17 488.94 269.97 478.517 261.061C470.851 254.513 459.261 240.814 454.459 226.978Z" fill="#FEF9F0"/>
<path fill-rule="evenodd" clip-rule="evenodd" d="M499.322 257.965C494.443 243.962 485.58 209 485.58 209L490.935 209.526C490.935 209.526 495.175 231.833 499.534 246.285C503.52 259.498 508.102 272.451 511.705 282.636C516.684 296.707 519.791 305.492 516.871 302.37C516.523 301.996 516.173 301.561 515.822 301.064C515.789 301.132 515.738 301.169 515.669 301.179C515.876 301.562 515.59 301.389 514.733 300.646L514.724 300.639C509.734 296.313 495.456 281.069 480.502 255.803C473.621 244.177 461 214.72 461 214.72L466.011 212.716C466.011 212.716 474.347 235.989 480.502 247.274C491.323 267.117 501.474 281.873 508.075 290.919C505.339 285.815 502.119 278.975 498.103 270.444C496.335 266.687 494.412 262.603 492.307 258.193C485.89 244.743 473.166 210.839 473.166 210.839H478.55C478.55 210.839 485.261 232.611 491.213 246.556C496.653 259.306 502.659 271.742 507.381 281.518C507.46 281.684 507.54 281.848 507.618 282.012C506.428 278.633 505.14 274.865 503.717 270.715C502.378 266.805 500.922 262.555 499.322 257.965Z" fill="black" fill-opacity="0.2"/>
<path d="M459.623 458.586L432.284 443.128C432.284 443.128 426.529 420.594 418.527 420.452C416.814 419.633 417.064 422.469 417.367 425.928C417.79 430.752 418.321 436.786 413.797 435.826C410.436 435.114 404.982 431.994 399.61 428.923C392.561 424.892 385.652 420.94 383.798 422.613C378.964 426.972 383.274 440.361 388.352 447.021C397.843 459.468 405.703 463.725 425.125 469.298C440.36 473.67 458.065 486.824 458.065 486.824L459.623 458.586Z" fill="#B28B67"/>
<path d="M525.138 326.587C525.138 326.587 494.456 325.757 477.621 338.583C468.246 345.725 455.958 387.253 447.222 438.448C447.222 438.448 439.965 440.61 436.379 442.455C432.793 444.302 426.517 502.436 422.931 531.963C422.165 538.273 427.962 542.198 437.276 540.269C471.542 533.167 560.103 496.376 560.103 496.376C560.103 496.376 614.771 465.238 621.069 450.237C627.366 435.236 529.958 323.806 525.138 326.587Z" fill="#F6AE2D"/>
<g filter="url(#filter1_f)">
<path d="M543.965 423.477C545.758 419.785 525.138 380.107 525.138 384.721C525.138 389.335 535 418.864 532.31 420.709C529.62 422.554 450.724 437.738 447.138 441.428C443.552 445.12 542.172 427.167 543.965 423.477Z" fill="black" fill-opacity="0.2"/>
</g>
<path fill-rule="evenodd" clip-rule="evenodd" d="M323.856 388.834L265.74 434.544L246.782 402.53L305.416 378.137C325.443 351.62 336.571 335.014 339.361 339.065C341.714 342.483 340.231 345.895 338.865 349.036C337.799 351.486 336.806 353.77 337.753 355.768C339.914 360.326 354.33 358.99 367.956 357.136C381.583 355.282 377.951 361.606 374.827 364.807C361.343 373.987 344.353 381.997 323.856 388.834Z" fill="#665647"/>
<g filter="url(#filter2_d)">
<path fill-rule="evenodd" clip-rule="evenodd" d="M194.801 425.414C194.801 425.414 212.733 527.811 178.664 527.811C144.595 527.811 86.0518 527.811 86.0518 527.811C74.3595 449.233 90.7443 412.009 119.233 357.055C120.321 354.956 122.636 351 128.093 351H149.484C149.493 351.029 149.502 351.057 149.513 351.084C155.949 351.138 163.038 351.373 170.715 351.628C194.197 352.408 225.284 388.248 238.732 394.728C252.181 401.207 275.428 385.08 300.595 377L307.905 413.533C277.476 433.103 251.885 445.828 238.732 446.034C225.58 446.241 194.801 425.414 194.801 425.414Z" fill="#CF000F"/>
</g>
<g filter="url(#filter3_f)">
<path d="M195.491 426.223C178.247 420.826 152.306 399.54 149.767 400.223" stroke="black" stroke-opacity="0.2" stroke-width="4"/>
</g>
<path fill-rule="evenodd" clip-rule="evenodd" d="M174.86 310.239C187.933 317.182 200.592 320.225 206.378 318.444C220.884 313.983 219.631 260.816 207.238 240.439C194.845 220.062 135.963 213.803 135.052 255.424C134.736 269.869 141.483 282.417 151.036 292.457L138.489 367.889L185.566 365.581L174.86 310.239Z" fill="#665647"/>
<path d="M198.568 228.101C201.093 229.575 202.33 233.88 201.29 233.589C195.891 232.083 194.707 243.43 193.548 247.672C190.93 257.255 192.189 254.077 189.665 263.687C187.547 271.748 177.687 296.57 174.639 304.675C174.016 306.334 175.974 316.942 177.767 325C179.56 333.058 180.457 339.345 186.634 342.836C192.811 346.327 203.04 355.567 207.877 373.381C212.714 391.198 202.545 397.271 200.411 398.085C188.248 402.731 173.432 391.176 173.432 391.176C168.516 386.534 135.201 383.053 109.922 395.68C84.6423 408.307 101.55 374.457 109.653 358.712C117.757 342.969 127.592 340.012 128.631 333.058C129.671 326.103 131.232 319.474 130.669 317.824C130.176 316.379 113.716 306.12 108.719 296.099C104.523 287.682 104.885 273.914 107.141 263.921C109.289 254.405 115.469 243.389 122.539 236.966C130.382 229.842 142.884 223.941 153.013 221.337C168.134 217.451 190.825 223.586 198.568 228.101Z" fill="#F9ECED"/>
<path fill-rule="evenodd" clip-rule="evenodd" d="M164.206 273.817C162.734 259.121 163.201 253.329 166.156 242.377L164.008 242.483C160.822 246.928 158.622 260.156 162.497 273.902L164.206 273.817ZM122.073 275.187C121.654 274.312 121.225 273.414 120.782 272.494L119.448 273.202C124.511 288.363 130.334 299.973 148.819 309.039L150.172 308.016C132.579 297.176 128.501 288.643 122.073 275.187ZM146.69 255.549C146.936 256.874 147.172 258.164 147.403 259.424C150.945 278.774 153.191 291.044 168.711 312.735L167.101 313.302C150.273 293.305 146.936 276.475 145.17 255.745L146.69 255.549ZM134.216 319.441L132.899 321.168C139.973 322.255 144.982 327.046 150.723 332.538C156.798 338.349 163.694 344.944 174.726 348.769L176.676 347.483C164.575 342.074 158.79 336.393 153.739 331.432C148.509 326.294 144.067 321.93 134.216 319.441Z" fill="black" fill-opacity="0.2"/>
<path d="M136.208 342.777C135.977 341.516 135.79 341.208 135.544 339.884L134.024 340.078C135.789 360.808 175.8 356.906 192.628 376.903L194.238 376.336C178.718 354.645 155.222 365.146 136.208 342.777Z" fill="black" fill-opacity="0.2"/>
</g>
<defs>
<filter id="filter0_d" x="0.933228" y="0" width="670.428" height="672" filterUnits="userSpaceOnUse" color-interpolation-filters="sRGB">
<feFlood flood-opacity="0" result="BackgroundImageFix"/>
<feColorMatrix in="SourceAlpha" type="matrix" values="0 0 0 0 0 0 0 0 0 0 0 0 0 0 0 0 0 0 127 0"/>
<feOffset dy="10"/>
<feGaussianBlur stdDeviation="25"/>
<feColorMatrix type="matrix" values="0 0 0 0 1 0 0 0 0 1 0 0 0 0 1 0 0 0 0.2 0"/>
<feBlend mode="normal" in2="BackgroundImageFix" result="effect1_dropShadow"/>
<feBlend mode="normal" in="SourceGraphic" in2="effect1_dropShadow" result="shape"/>
</filter>
<filter id="filter1_f" x="443.042" y="380.348" width="105.034" height="65.5769" filterUnits="userSpaceOnUse" color-interpolation-filters="sRGB">
<feFlood flood-opacity="0" result="BackgroundImageFix"/>
<feBlend mode="normal" in="SourceGraphic" in2="BackgroundImageFix" result="shape"/>
<feGaussianBlur stdDeviation="2" result="effect1_foregroundBlur"/>
</filter>
<filter id="filter2_d" x="78.2412" y="351" width="233.664" height="184.811" filterUnits="userSpaceOnUse" color-interpolation-filters="sRGB">
<feFlood flood-opacity="0" result="BackgroundImageFix"/>
<feColorMatrix in="SourceAlpha" type="matrix" values="0 0 0 0 0 0 0 0 0 0 0 0 0 0 0 0 0 0 127 0"/>
<feOffset dy="4"/>
<feGaussianBlur stdDeviation="2"/>
<feColorMatrix type="matrix" values="0 0 0 0 0 0 0 0 0 0 0 0 0 0 0 0 0 0 0.25 0"/>
<feBlend mode="normal" in2="BackgroundImageFix" result="effect1_dropShadow"/>
<feBlend mode="normal" in="SourceGraphic" in2="effect1_dropShadow" result="shape"/>
</filter>
<filter id="filter3_f" x="145.247" y="394.207" width="54.8411" height="37.9248" filterUnits="userSpaceOnUse" color-interpolation-filters="sRGB">
<feFlood flood-opacity="0" result="BackgroundImageFix"/>
<feBlend mode="normal" in="SourceGraphic" in2="BackgroundImageFix" result="shape"/>
<feGaussianBlur stdDeviation="2" result="effect1_foregroundBlur"/>
</filter>
<linearGradient id="paint0_linear" x1="115" y1="542" x2="475" y2="132" gradientUnits="userSpaceOnUse">
<stop stop-color="#4183EC"/>
<stop offset="1" stop-color="#10B3FB" stop-opacity="0.75"/>
</linearGradient>
<linearGradient id="paint1_linear" x1="363.17" y1="404.343" x2="363.17" y2="528.096" gradientUnits="userSpaceOnUse">
<stop stop-color="white" stop-opacity="0.4"/>
<stop offset="1" stop-color="#AFB9C5"/>
</linearGradient>
<linearGradient id="paint2_linear" x1="343.315" y1="455.538" x2="343.315" y2="482.626" gradientUnits="userSpaceOnUse">
<stop stop-color="white"/>
<stop offset="1" stop-color="white" stop-opacity="0.75"/>
</linearGradient>
</defs>
</svg>
